inDegrees=no
num_controls=7
num_derivatives=13
num_iterations=54
num_multipliers=7
num_parameters=0
num_slacks=7
num_states=26
objective=0.427308
objective_accelerations=0.057158
objective_balance=0.001194
objective_effort=0.014815
objective_height=0.348162
objective_ligament=0.005979
solver_duration=752.604045
status=Solve_Succeeded
success=true
DataType=double
version=3
OpenSimVersion=4.5
endheader
time	/jointset/ground_pelvis/pelvis_tilt/value	/jointset/ground_pelvis/pelvis_tx/value	/jointset/ground_pelvis/pelvis_ty/value	/jointset/hip_l/hip_flexion_l/value	/jointset/hip_l/hip_adduction_l/value	/jointset/hip_l/hip_rotation_l/value	/jointset/back/lumbar_extension/value	/jointset/patellofemoral_l/patellar_flexion_l/value	/jointset/knee_l/knee_flexion_l/value	/jointset/knee_l/knee_adduction_l/value	/jointset/knee_l/knee_rotation_l/value	/jointset/ankle_l/ankle_angle_l/value	/jointset/subtalar_l/subtalar_angle_l/value	/jointset/ground_pelvis/pelvis_tilt/speed	/jointset/ground_pelvis/pelvis_tx/speed	/jointset/ground_pelvis/pelvis_ty/speed	/jointset/hip_l/hip_flexion_l/speed	/jointset/hip_l/hip_adduction_l/speed	/jointset/hip_l/hip_rotation_l/speed	/jointset/back/lumbar_extension/speed	/jointset/patellofemoral_l/patellar_flexion_l/speed	/jointset/knee_l/knee_flexion_l/speed	/jointset/knee_l/knee_adduction_l/speed	/jointset/knee_l/knee_rotation_l/speed	/jointset/ankle_l/ankle_angle_l/speed	/jointset/subtalar_l/subtalar_angle_l/speed	/forceset/tau_hip_flexion_l	/forceset/tau_hip_adduction_l	/forceset/tau_hip_rotation_l	/forceset/tau_knee_flexion_l	/forceset/tau_ankle_angle_l	/forceset/tau_subtalar_angle_l	/forceset/tau_lumbar_extension	lambda_cid13_p0	lambda_cid13_p1	lambda_cid13_p2	lambda_cid13_p3	lambda_cid13_p4	lambda_cid13_p5	lambda_cid14_p0	/jointset/ground_pelvis/pelvis_tilt/accel	/jointset/ground_pelvis/pelvis_tx/accel	/jointset/ground_pelvis/pelvis_ty/accel	/jointset/hip_l/hip_flexion_l/accel	/jointset/hip_l/hip_adduction_l/accel	/jointset/hip_l/hip_rotation_l/accel	/jointset/back/lumbar_extension/accel	/jointset/patellofemoral_l/patellar_flexion_l/accel	/jointset/knee_l/knee_flexion_l/accel	/jointset/knee_l/knee_adduction_l/accel	/jointset/knee_l/knee_rotation_l/accel	/jointset/ankle_l/ankle_angle_l/accel	/jointset/subtalar_l/subtalar_angle_l/accel	gamma_cid13_p0	gamma_cid13_p1	gamma_cid13_p2	gamma_cid13_p3	gamma_cid13_p4	gamma_cid13_p5	gamma_cid14_p0
1.5	-0.3347415026177377	0.04848562649184277	0.7904322615613529	1.006617711587229	-0.3552622405627598	-0.05196316896868731	-0.3282017645155787	0.8247113010295595	0.8247113010295856	-0.02717635786830759	-0.1702621004356473	0.2727747228456258	0.1579016198898326	0.4610284540410498	0.2696487271017083	0.5020198677082416	-2.303201501373262	0.001844094730870849	-0.5871514372723831	0.62466386084866	-2.224373551788845	-2.224373551788814	-0.3127391575669431	0.04405190796954742	-0.554161215890234	-0.2174385964575384	-0.1244084077144865	0.06463278798736868	-0.001581153726283055	-0.1438293573810098	-0.00908130615185326	-0.008701450665978862	0.1214114711157669	-28.01292874850255	9.784735549377384	-3.098382656496082	-6.490432990491538	-429.1310046379444	-33.66288382008982	-9.861404444145078	0.5643157703484822	0.6564058006119126	-0.7656159946571728	-1.365225984176945	0.2652848082097892	-0.4033826824371449	1.520125304630915	-1.203295777667566	-1.203295777667568	-0.2598079494016031	0.3616065718563599	-0.4763639820220847	0.3860440614390234	6.283475032016998e-07	-5.948884993429649e-07	-7.583110015273957e-06	-4.499884671247074e-07	1.496545958507886e-06	1.637988320756935e-06	8.337901920616767e-07
1.51	-0.3301029789784058	0.05121471068014492	0.7954131335603857	0.983518811878437	-0.3552335747481477	-0.05784648810639931	-0.3218811604216925	0.8024096214964523	0.8024096214963237	-0.03032760502196261	-0.1698016538339951	0.2672092875650709	0.1557423401564522	0.4665869432625299	0.2761366852797735	0.4940354946855353	-2.316249118608237	0.003863501141610006	-0.5893310204091019	0.6393508348334449	-2.235623260584007	-2.235623260583912	-0.3175906234199698	0.04813374795685515	-0.5588114937238379	-0.2144124033692317	-0.1196468867208789	0.06285505813635646	-0.0006654845813208488	-0.1412940926754031	-0.008008773858640602	-0.009656985589212554	0.1174638319638704	-27.52209725585379	9.929956663032927	-2.911563369078976	-6.595791261738179	-425.6921901079211	-33.65542930466268	-10.78104476935106	0.5382704701020268	0.640210767737533	-0.8323861482994119	-1.225044086755472	0.1675567801516694	-0.09709957022314189	1.427064981357704	-1.0351196680556	-1.035119668045906	-0.6100789934448977	0.4445454867932937	-0.442183073784474	0.2625006093215181	6.292176578966567e-07	-4.290628394076759e-08	-7.516102597752779e-06	-3.716754367227804e-07	1.55631066486243e-06	2.08733582033841e-06	8.622308954009979e-07
1.52	-0.3254115394524498	0.05400771843849497	0.8003106541907474	0.9602993330985651	-0.3551852572249112	-0.0637459737636915	-0.3154168702807684	0.7800055826277716	0.7800055826277253	-0.03352981945165222	-0.1692977742777489	0.2616007848282396	0.1536136410893116	0.471611631366199	0.2824334411112877	0.4853495939740193	-2.327317315587088	0.005774436458239138	-0.5903847411832035	0.6534010702564452	-2.244845418883769	-2.244845418883609	-0.3229326128807097	0.05273849892918602	-0.5627747071476403	-0.211322463209133	-0.1148853657273971	0.06107732828508497	0.0002501845658972851	-0.1387588279698397	-0.006936241565514689	-0.01061252051285337	0.1135161928118961	-27.025582480416	10.07316498070882	-2.723255214407428	-6.758035671544955	-422.1645902462654	-33.76186067918232	-11.69760430222424	0.4575555467863975	0.6181653313016	-0.9059215324191422	-0.969341932952389	0.2435905893876533	-0.1782102099138007	1.392777592274165	-0.7977856785873992	-0.797785678587424	-0.3579126709441103	0.4661887688610224	-0.3389511000619402	0.3987934757974496	6.210626250357424e-07	3.383942805408352e-07	-7.403956724675305e-06	-3.103544146015322e-07	1.599796364940104e-06	2.444561712578178e-06	8.691239008767788e-07
1.53	-0.3206727266014978	0.05686238569745732	0.8051179523267313	0.9369793003106859	-0.3551182905601092	-0.06965194328715105	-0.3088155278611009	0.7575188540894695	0.7575188540893771	-0.03678659648777648	-0.1687457879519708	0.255955445339726	0.1515160698235151	0.476043217141747	0.2884327791788752	0.4760055566548586	-2.336327661204775	0.007603930770814157	-0.5907161622045762	0.6667298501383808	-2.252206500182115	-2.252206500182076	-0.3284280515625497	0.05771094045128887	-0.5662374099832472	-0.2081969034809232	-0.1105078438152629	0.0595211301854969	0.001277255626776544	-0.1356508406971613	-0.007436814936666384	-0.01180294120547282	0.1097392962556019	-27.09651429371653	10.38991656296628	-2.530838653153693	-6.216307954583073	-419.0800445818154	-33.584780158558	-12.60971100834187	0.4198531535530624	0.5806845340338113	-0.9639883156195406	-0.8125598197443676	0.1514337581608518	0.05427696148308477	1.282293655547449	-0.6613699766395102	-0.6613699766575794	-0.6463369841976322	0.5192971747843673	-0.3415312030528989	0.2694199926725724	6.03318330396715e-07	5.383455909193079e-07	-7.243851242569265e-06	-2.670874012785051e-07	1.625985620848603e-06	2.703908397017384e-06	8.531224773725482e-07
1.54	-0.3158928192806696	0.0597750196350052	0.8098287413927331	0.9135800282779084	-0.3550332679710089	-0.07555825001887768	-0.3020850245487345	0.7349672946138901	0.7349672946138857	-0.04009852341390594	-0.1681427721449124	0.2502771585573125	0.1494497507092663	0.4798305253418564	0.2940267768283934	0.4660477799776008	-2.343165164565147	0.009385621322162309	-0.5904521828366772	0.6792332487960808	-2.25781160632771	-2.257811606327791	-0.3339625909401698	0.06294439520937593	-0.5693641659285658	-0.2050720328991274	-0.1061303219031805	0.05796493208577955	0.002304326688789134	-0.1325428534244952	-0.007937388307853944	-0.01299336189828325	0.1059623996992781	-27.16136396644022	10.70481054054137	-2.337215889670721	-5.737597416050041	-415.9143007642523	-33.52093317371746	-13.51695636993526	0.3287000316988541	0.5370972476876256	-1.028669404038566	-0.5347734814894491	0.2340298371422068	-0.05913013205952918	1.227701347427194	-0.4465906480372429	-0.4465906480372531	-0.3657328101000296	0.5183914160579057	-0.2717617220043985	0.3986556465146331	4.042756951033877e-07	2.085876295303749e-06	-4.889024205161332e-06	4.176830123069965e-08	1.213401974587249e-06	2.654192965999167e-06	7.188343482829671e-07
1.55	-0.3110783155062734	0.06274143757678276	0.8144368848353855	0.8901244127608515	-0.3549279256511962	-0.08147397684295589	-0.2952328563135854	0.7123699818546277	0.7123699818544951	-0.0434514491163993	-0.167494838104306	0.2445706362571191	0.1474189691334486	0.4830014417145489	0.2991793863928915	0.455484754408656	-2.34758408426831	0.0117026780499939	-0.5926489641613806	0.6910932890439718	-2.261274682089659	-2.261274682089651	-0.3365482913469686	0.06663023272053828	-0.5718402770640376	-0.2010341236361051	-0.1026547789061763	0.0566395099751647	0.003336358437449852	-0.1282654450231715	-0.01027130791502896	-0.01418987857971595	0.102826419939801	-27.83533678995111	11.06851632710925	-2.08228382412758	-4.802566233297892	-413.0531190263355	-33.31993881761191	-14.41989261086167	0.3009674522379427	0.4929286838101369	-1.08458521387418	-0.3393895120910928	0.2323659396720863	-0.2931386617656636	1.149088985238857	-0.2397861110636175	-0.2397861110501288	-0.1926607518461675	0.2924238281284915	-0.2202743337931083	0.4124728245989679	-3.654158769882121e-09	5.186052823216722e-06	-5.496245340488637e-09	6.56628363019614e-07	2.952756366954419e-07	2.248384228040897e-06	4.482593627580986e-07
